<svg xmlns="http://www.w3.org/2000/svg" viewBox="0 0 777.08 988.45"><defs><style>.cls-1{fill:#9fef00;stroke-width:20px;}.cls-1,.cls-2,.cls-3,.cls-4{stroke:#111927;}.cls-1,.cls-2,.cls-3{stroke-miterlimit:10;}.cls-2,.cls-3,.cls-4{fill:none;stroke-width:30px;}.cls-3,.cls-4{stroke-linecap:round;}.cls-4{stroke-linejoin:round;}</style></defs><g id="图层_12" data-name="图层 12"><path class="cls-1" d="M133.46,263.36V678.19a32,32,0,0,0,15.62,27.49L495.62,912.21a32,32,0,0,0,32.76,0L874.92,705.68a32,32,0,0,0,15.62-27.49V263.36a32,32,0,0,0-15.62-27.49L528.38,29.34a32,32,0,0,0-32.76,0L149.08,235.87A32,32,0,0,0,133.46,263.36Z" transform="translate(-123.46 -14.83)"/></g><g id="图层_11" data-name="图层 11"><circle class="cls-2" cx="388.68" cy="94.99" r="30"/></g><g id="图层_10" data-name="图层 10"><circle class="cls-2" cx="68.58" cy="272.41" r="30"/></g><g id="图层_9" data-name="图层 9"><circle class="cls-2" cx="704.58" cy="277.15" r="30"/></g><g id="图层_8" data-name="图层 8"><line class="cls-3" x1="388.32" y1="906.75" x2="388.32" y2="130.24"/></g><g id="图层_7" data-name="图层 7"><line class="cls-2" x1="672.41" y1="291.65" x2="388.2" y2="455.74"/></g><g id="图层_6" data-name="图层 6"><polyline class="cls-4" points="104.7 292.04 298.45 403.71 298.45 906.75"/></g><g id="图层_5" data-name="图层 5"><polyline class="cls-4" points="673.42 396.07 479.84 508.03 478.94 508.1 478.94 908.15"/></g><g id="图层_4" data-name="图层 4"><circle class="cls-2" cx="298.45" cy="943.4" r="30"/></g><g id="图层_3" data-name="图层 3"><circle class="cls-2" cx="388.82" cy="943.4" r="30"/></g><g id="图层_2" data-name="图层 2"><circle class="cls-2" cx="478.94" cy="943.45" r="30"/></g></svg>